<?xml version="1.0" standalone="no"?><!DOCTYPE svg PUBLIC "-//W3C//DTD SVG 1.1//EN" "http://www.w3.org/Graphics/SVG/1.1/DTD/svg11.dtd"><svg t="1605858308245" class="icon" viewBox="0 0 1028 1024" version="1.1" xmlns="http://www.w3.org/2000/svg" p-id="77020" xmlns:xlink="http://www.w3.org/1999/xlink" width="200.78125" height="200"><defs><style type="text/css"></style></defs><path d="M509.007396 0c-280.93837 0-508.946322 228.007952-508.946322 508.946322s228.007952 508.946322 508.946322 508.946322 508.946322-228.007952 508.946322-508.946322-228.007952-508.946322-508.946322-508.946322zM637.261869 749.168986c-43.769384-22.393638-50.894632 27.483101-127.236581 27.483101s-84.485089-48.858847-127.23658-27.483101c-43.769384 22.393638-128.254473 9.161034-128.254473-50.894632 0-91.610338 90.592445-169.988072 141.487077-207.6501 20.357853-15.26839 29.518887-40.715706 22.393638-65.145129l-40.715705-150.648111c-3.053678-11.196819 4.071571-22.393638 15.268389-25.447316l34.60835-7.125249c9.161034-2.035785 18.322068 3.053678 22.393638 11.196819 10.178926 21.375746 32.572565 36.644135 58.019881 36.644136s47.840954-15.26839 58.019881-36.644136c4.071571-8.143141 13.232604-13.232604 22.393638-11.196819l34.60835 7.125249c11.196819 2.035785 18.322068 14.250497 15.268389 25.447316l-40.715705 150.648111c-2.035785 8.143141-2.035785 16.286282-1.017893 24.429424L543.615746 464.159046c-19.33996 5.089463-40.715706 5.089463-60.055666 1.017892l-16.286283-4.07157c-5.089463-1.017893-11.196819 2.035785-12.214712 8.143141-1.017893 5.089463 2.035785 11.196819 8.143142 12.214712l15.268389 3.053678c11.196819 2.035785 22.393638 4.071571 33.590458 4.07157 12.214712 0 24.429423-1.017893 35.626242-4.07157l54.966203-13.232605c1.017893 0 1.017893 0 1.017893-1.017892 4.071571 8.143141 10.178926 15.26839 18.322067 21.375745 50.894632 36.644135 141.487078 116.039761 141.487078 207.6501 1.017893 59.037773-82.449304 72.270378-126.218688 49.876739z" p-id="77021"></path></svg>
