<?xml version="1.0" standalone="no"?><!DOCTYPE svg PUBLIC "-//W3C//DTD SVG 1.1//EN" "http://www.w3.org/Graphics/SVG/1.1/DTD/svg11.dtd"><svg t="1607849145608" class="icon" viewBox="0 0 1024 1024" version="1.1" xmlns="http://www.w3.org/2000/svg" p-id="2238" xmlns:xlink="http://www.w3.org/1999/xlink" width="200" height="200"><defs><style type="text/css"></style></defs><path d="M731.016533 136.533333 336.1792 136.533333c-119.7056 0-149.504 27.4432-148.923733 139.861333 9.045333-0.0512 9.045333 0.631467 9.045333 0.631467l-3.157333 0c-31.3344 0-40.0384 25.378133-40.0384 56.695467 0 28.893867 7.645867 52.462933 33.3824 55.995733l0 74.6496c-25.736533 3.5328-33.3824 27.101867-33.3824 55.978667 0 28.8768 7.645867 52.445867 33.3824 55.978667l0 74.6496c-25.736533 3.5328-33.3824 27.101867-33.3824 55.995733 0 31.317333 2.048 63.6928 33.3824 63.6928 0 98.679467 29.1328 116.821333 149.691733 116.821333l394.820267 0c105.233067 0 139.895467-24.593067 139.895467-123.118933L870.894933 276.343467C870.894933 157.1328 839.4752 136.533333 731.016533 136.533333zM661.077333 556.168533c20.6336 0 33.1264 11.042133 33.1264 33.1264 0 22.084267-11.042133 33.1264-33.1264 33.1264-14.677333-0.0512-88.354133 0-88.354133 0l0 66.2528c0 20.906667-18.653867 33.024-39.424 33.024-20.770133 0-37.888-12.117333-37.888-33.024l0-66.2528-88.337067 0c-33.1264 0-33.1264-33.1264-33.1264-33.1264s0-33.1264 33.1264-33.1264l88.337067 0L495.4112 512l-88.337067 0c-22.084267 0-33.1264-11.042133-33.1264-33.1264 0-20.906667 12.356267-33.1264 33.1264-33.1264l77.294933 0-53.640533-46.609067-21.367467-21.504c-13.841067-13.943467-14.148267-35.84-1.860267-50.705067 0.733867-0.887467 1.041067-1.9968 1.860267-2.833067 14.6944-14.779733 38.485333-14.779733 53.162667 0l2.798933 2.833067 68.4032 68.881067 66.474667-66.952533 4.727467-4.7616c14.6944-14.779733 38.468267-14.779733 53.162667 0 14.677333 14.779733 14.677333 38.775467 0 53.5552l-74.3424 68.130133 77.294933 0c20.770133 0 33.1264 12.219733 33.1264 33.1264 0 22.084267-12.356267 33.1264-33.1264 33.1264l-88.354133 0 0 44.168533L661.077333 556.202667z" p-id="2239"></path></svg>
