<?xml version="1.0" standalone="no"?><!DOCTYPE svg PUBLIC "-//W3C//DTD SVG 1.1//EN" "http://www.w3.org/Graphics/SVG/1.1/DTD/svg11.dtd"><svg t="1605841167704" class="icon" viewBox="0 0 1024 1024" version="1.1" xmlns="http://www.w3.org/2000/svg" p-id="15624" xmlns:xlink="http://www.w3.org/1999/xlink" width="200" height="200"><defs><style type="text/css"></style></defs><path d="M512 1024C229.24 1024 0 794.76 0 512S229.24 0 512 0s512 229.24 512 512-229.24 512-512 512zM391.555 740.966c-12.447 3.004-21.845 13.745-21.845 27.057 0 15.701 12.743 28.421 28.512 28.421h227.556A28.444 28.444 0 0 0 654.29 768c0-13.29-9.398-24.03-21.845-27.034 96.802-45.374 164-143.041 164-256.455h-568.89c0 113.255 67.357 211.08 164 256.455z m376.377-376.354a85.333 85.333 0 0 0-81.92-82.102 86.63 86.63 0 0 0-80.26-22.664 85.151 85.151 0 0 0-65.376-30.72 85.379 85.379 0 0 0-65.4 30.72c-30.947-7.419-65.217 4.232-85.4 28.421a87.379 87.379 0 0 0-19.866-2.275 85.356 85.356 0 0 0-81.625 60.325 85.151 85.151 0 0 0-60.53 81.35h568.89a84.582 84.582 0 0 0-28.513-63.032z" p-id="15625"></path></svg>
