<?xml version="1.0" standalone="no"?><!DOCTYPE svg PUBLIC "-//W3C//DTD SVG 1.1//EN" "http://www.w3.org/Graphics/SVG/1.1/DTD/svg11.dtd"><svg t="1605854357189" class="icon" viewBox="0 0 1024 1024" version="1.1" xmlns="http://www.w3.org/2000/svg" p-id="70040" xmlns:xlink="http://www.w3.org/1999/xlink" width="200" height="200"><defs><style type="text/css"></style></defs><path d="M607.573333 807.765333a21.333333 21.333333 0 0 0 9.685334-5.333333l120.234666-115.328a21.333333 21.333333 0 0 0 6.954667-15.872 21.248 21.248 0 0 0 2.048-9.258667 26.453333 26.453333 0 0 0 0.170667-3.029333v-97.792c0-28.416-42.666667-28.416-42.666667 0v79.445333L640 640a64 64 0 0 0-64 64l-0.298667 64H320a21.333333 21.333333 0 0 1-21.333333-21.333333v-469.333334a21.333333 21.333333 0 0 1 21.333333-21.333333H682.666667a21.333333 21.333333 0 0 1 21.333333 21.333333 21.333333 21.333333 0 1 0 42.666667 0A64 64 0 0 0 682.666667 213.333333H320A64 64 0 0 0 256 277.333333v469.333334A64 64 0 0 0 320 810.666667h276.821333a21.248 21.248 0 0 0 10.752-2.901334z m72.533334-124.757333l-61.610667 59.136 0.170667-38.144a21.333333 21.333333 0 0 1 21.333333-21.333333l40.106667 0.341333zM512 1024C229.248 1024 0 794.752 0 512S229.248 0 512 0s512 229.248 512 512-229.248 512-512 512zM384 384h149.333333a21.333333 21.333333 0 1 0 0-42.666667H384a21.333333 21.333333 0 0 0 0 42.666667z m0 106.666667h85.333333a21.333333 21.333333 0 1 0 0-42.666667H384a21.333333 21.333333 0 1 0 0 42.666667z m429.653333-154.581334l-0.256-0.341333a64 64 0 0 0-89.813333-6.741333l-291.84 248.149333a21.333333 21.333333 0 0 0-6.656 10.24l-20.650667 70.314667a21.333333 21.333333 0 0 0 22.144 27.306666l76.629334-5.973333a21.333333 21.333333 0 0 0 12.117333-4.992l292.096-248.32c26.453333-23.04 29.269333-63.146667 6.229333-89.642667z m-34.389333 57.6l-286.293333 243.370667-38.912 3.029333 10.154666-34.56 287.061334-244.053333a21.333333 21.333333 0 0 1 29.909333 2.261333l0.298667 0.341334a20.949333 20.949333 0 0 1-2.218667 29.610666z" p-id="70041" ></path></svg>
