<?xml version="1.0" standalone="no"?><!DOCTYPE svg PUBLIC "-//W3C//DTD SVG 1.1//EN" "http://www.w3.org/Graphics/SVG/1.1/DTD/svg11.dtd"><svg t="1605845840595" class="icon" viewBox="0 0 1024 1024" version="1.1" xmlns="http://www.w3.org/2000/svg" p-id="47113" xmlns:xlink="http://www.w3.org/1999/xlink" width="200" height="200"><defs><style type="text/css"></style></defs><path d="M512 967.1168C260.6592 967.1168 56.8832 763.3408 56.8832 512 56.8832 260.6592 260.6592 56.8832 512 56.8832c251.3408 0 455.1168 203.776 455.1168 455.1168 0 251.3408-203.776 455.1168-455.1168 455.1168z m55.8208-733.76c0 4.288 0.3712 8.7552 1.024 13.3376 4.8512 33.8048 25.4208 72.9216 53.504 106.4448 28.032 33.4336 62.8096 60.5568 96.128 70.4256a85.4912 85.4912 0 0 0 24.4224 3.8016c32.2432-50.048 27.776-115.328-10.9952-160.512-41.3184-48.2944-109.4272-60.5312-164.0832-33.4976zM291.8656 604.4032c-0.3968 24.0256 11.776 37.248 35.072 40.96l256.5248-171.328c-35.4432-22.2464-65.6128-58.944-81.2288-97.536L291.8656 604.4032z m8.3968 54.3616l-26.7008-25.472c-31.36 32.512-40.0512 68.9664-31.552 97.8304a70.5664 70.5664 0 0 0 24.8832 36.3648c11.7504 9.0368 26.752 14.9248 44.3136 16.4224 44.6336 3.8016 108.416-21.504 178.2016-99.2256 54.8992-61.1072 102.2848-89.7792 139.8528-96.3072 18.752-3.2768 34.688-0.832 47.4496 5.824 12.7488 6.6816 22.784 17.6768 29.5936 31.488 12.1344 24.6016 14.4 57.8176 4.7104 92.288l35.6352 9.9328c12.1856-43.2512 8.8832-85.888-7.1552-118.3488-10.2528-20.8-25.664-37.5296-45.5296-47.8976-19.8784-10.4064-43.8272-14.336-71.104-9.6-45.056 7.872-100.0832 40.1408-161.1264 108.1216-60.736 67.6352-112.7296 89.9456-147.4688 86.976-10.2016-0.8704-18.56-4.0064-24.7424-8.7552a33.8944 33.8944 0 0 1-11.9936-17.5232c-5.0432-17.088 1.408-40.0128 22.7328-62.0928v-0.0256z m422.016-207.7056c-41.472-13.6576-82.9312-45.7984-115.4944-84.6592-29.632-35.3536-52.4288-76.864-61.632-115.4944a134.656 134.656 0 0 0-28.928 104.6784c14.9248 44.4928 53.6064 90.5984 96.6912 110.272 36.9152 10.6496 76.608 5.2864 109.3632-14.7968z" p-id="47114"></path></svg>
