<?xml version="1.0" standalone="no"?><!DOCTYPE svg PUBLIC "-//W3C//DTD SVG 1.1//EN" "http://www.w3.org/Graphics/SVG/1.1/DTD/svg11.dtd"><svg t="1605845434942" class="icon" viewBox="0 0 1024 1024" version="1.1" xmlns="http://www.w3.org/2000/svg" p-id="34875" xmlns:xlink="http://www.w3.org/1999/xlink" width="200" height="200"><defs><style type="text/css"></style></defs><path d="M512 958.567C265.366 958.567 65.432 758.633 65.432 512c0-246.632 199.934-446.566 446.566-446.566 246.63 0 446.566 199.934 446.566 446.566 0 246.633-199.935 446.567-446.566 446.567zM278.914 266.489c-19.24 0-34.686 16.139-34.686 36.008V735.08h47.365V602.714h484.054V735.08h47.764V557.519H291.594V302.497c0-19.869 6.844-36.008-12.68-36.008z m113.588 76.595c-34.93 0-63.159 28.749-63.159 64.52 0 36.029 28.227 64.777 63.159 64.777 34.819 0 63.085-28.75 63.085-64.777 0-35.79-28.209-64.52-63.085-64.52z m431.88 184.7l-0.208-66.803c-0.227-28.251-23.295-47.767-50.247-51.128H483.223v76.526H342.432c-17.314 0-31.24-7.963-31.24 9.54 0 17.737 13.925 31.883 31.24 31.883h481.951v-0.019z" p-id="34876"></path></svg>
