<?xml version="1.0" standalone="no"?><!DOCTYPE svg PUBLIC "-//W3C//DTD SVG 1.1//EN" "http://www.w3.org/Graphics/SVG/1.1/DTD/svg11.dtd"><svg t="1605845631153" class="icon" viewBox="0 0 1024 1024" version="1.1" xmlns="http://www.w3.org/2000/svg" p-id="39682" xmlns:xlink="http://www.w3.org/1999/xlink" width="200" height="200"><defs><style type="text/css"></style></defs><path d="M511.061628 65.484434c-248.623497 0-450.172863 201.549366-450.172863 450.172863s201.549366 450.171839 450.172863 450.171839 450.172863-201.549366 450.172863-450.171839S759.685125 65.484434 511.061628 65.484434zM523.948123 742.129284c-4.26207 0.288572-8.572236 0.432859-12.914124 0.432859-4.342912 0-8.652054-0.144286-12.930497-0.432859-128.870066-8.716522-195.892529-159.169139-122.364909-265.383206l127.09156-183.587272c4.086062-5.879917 12.786211-5.879917 16.8559 0.016373l126.801964 183.618994C719.872375 583.072709 652.786467 733.429135 523.948123 742.129284z" p-id="39683" ></path><path d="M592.270185 517.780657c-18.090007 0-55.453986 0-69.698408 0-2.996241 0-5.222955-2.707668-4.694929-5.655813l11.311627-64.442708c0.864694-4.90266-5.367241-7.738241-8.492418-3.877307l-94.565772 116.548436c-2.563382 3.155876-0.320295 7.867178 3.733021 7.867178l72.406077 0c2.996241 0 5.272074 2.707668 4.743024 5.655813l-10.543124 60.069097c-0.864694 4.90266 5.367241 7.739265 8.492418 3.877307l91.02411-112.174825C598.550215 522.490935 596.33885 517.780657 592.270185 517.780657z" p-id="39684" ></path></svg>
