<?xml version="1.0" standalone="no"?><!DOCTYPE svg PUBLIC "-//W3C//DTD SVG 1.1//EN" "http://www.w3.org/Graphics/SVG/1.1/DTD/svg11.dtd"><svg t="1607761271192" class="icon" viewBox="0 0 1024 1024" version="1.1" xmlns="http://www.w3.org/2000/svg" p-id="1807" xmlns:xlink="http://www.w3.org/1999/xlink" width="200" height="200"><defs><style type="text/css"></style></defs><path d="M730.072805 608.719486h50.980728v54.749465h-50.980728zM664.462527 608.719486h50.980728v54.749465h-50.980728zM601.66167 608.719486h50.980728v54.749465h-50.980728z" p-id="1808"></path><path d="M512 0a512 512 0 1 0 512 512A512 512 0 0 0 512 0z m343.126338 694.646681c0 31.931478-27.922912 58.244111-61.978586 58.244111H229.721627c-34.089936 0-61.841542-26.175589-61.841541-58.244111v-244.625268h687.280514z m0-299.751606H167.845824v-65.09636c0-31.931478 27.922912-58.244111 61.841542-58.244111H793.147752c34.089936 0 61.978587 26.175589 61.978586 58.244111z" p-id="1809"></path></svg>
