<?xml version="1.0" standalone="no"?><!DOCTYPE svg PUBLIC "-//W3C//DTD SVG 1.1//EN" "http://www.w3.org/Graphics/SVG/1.1/DTD/svg11.dtd"><svg t="1606023261697" class="icon" viewBox="0 0 1024 1024" version="1.1" xmlns="http://www.w3.org/2000/svg" p-id="2756" xmlns:xlink="http://www.w3.org/1999/xlink" width="200" height="200"><defs><style type="text/css"></style></defs><path d="M832 128H192c-53.12 0-96 42.88-96 96V640c0 53.12 42.88 96 96 96h64v-64H192c-17.92 0-32-14.08-32-32V224c0-17.92 14.08-32 32-32h640c17.92 0 32 14.08 32 32V640c0 17.92-14.08 32-32 32h-173.44L512 824.32l-104.96-110.08-46.08 44.16L512 916.48l173.44-180.48H832c53.12 0 96-42.88 96-96V224c0-53.12-42.88-96-96-96z" fill="#1296db" p-id="2757"></path><path d="M320 320h384v64H320zM320 480h384v64H320z" fill="#1296db" p-id="2758"></path></svg>