<?xml version="1.0" standalone="no"?><!DOCTYPE svg PUBLIC "-//W3C//DTD SVG 1.1//EN" "http://www.w3.org/Graphics/SVG/1.1/DTD/svg11.dtd"><svg t="1606283116838" class="icon" viewBox="0 0 1024 1024" version="1.1" xmlns="http://www.w3.org/2000/svg" p-id="621" xmlns:xlink="http://www.w3.org/1999/xlink" width="200" height="200"><defs><style type="text/css"></style></defs><path d="M512 8.258C790.214 8.258 1015.742 233.786 1015.742 512S790.214 1015.742 512 1015.742 8.258 790.214 8.258 512 233.786 8.258 512 8.258z m0 49.54800001c-250.847 0-454.194 203.347-454.19399999 454.19399999S261.153 966.19399999 512 966.19399999 966.19399999 762.847 966.19399999 512 762.847 57.80600001 512 57.80600001z" fill="#1296db" p-id="622"></path><path d="M502.52 511.207L626.72 635.41a24.774 24.774 0 0 1-35.03 35.03l-131.684-131.666a38.978 38.978 0 0 1-1e-8-55.115L592.334 351.33099999a24.774 24.774 0 0 1 35.031 35.03000001L502.52 511.225z" fill="#1296db" p-id="623"></path><path d="M421.161 677.161q-24.774 0-24.774-24.774l0-280.774q0-24.774 24.774-24.774t24.774 24.774L445.935 652.387q0 24.774-24.774 24.774z" fill="#1296db" p-id="624"></path></svg>