<?xml version="1.0" standalone="no"?><!DOCTYPE svg PUBLIC "-//W3C//DTD SVG 1.1//EN" "http://www.w3.org/Graphics/SVG/1.1/DTD/svg11.dtd"><svg t="1606221975235" class="icon" viewBox="0 0 1024 1024" version="1.1" xmlns="http://www.w3.org/2000/svg" p-id="2771" xmlns:xlink="http://www.w3.org/1999/xlink" width="200" height="200"><defs><style type="text/css"></style></defs><path d="M512 1015.741935C233.785806 1015.741935 8.258065 790.214194 8.258065 512S233.785806 8.258065 512 8.258065 1015.741935 233.785806 1015.741935 512 790.214194 1015.741935 512 1015.741935z m0-49.548387c250.846968 0 454.193548-203.346581 454.193548-454.193548S762.846968 57.806452 512 57.806452 57.806452 261.153032 57.806452 512 261.153032 966.193548 512 966.193548z" fill="#0069F6" p-id="2772"></path><path d="M521.480258 512.792774l-124.20129-124.20129a24.774194 24.774194 0 0 1 35.030709-35.03071l131.683097 131.666581a38.978065 38.978065 0 0 1 0 55.114322l-132.327226 132.327226a24.774194 24.774194 0 0 1-35.030709-35.030709l124.845419-124.861936z" fill="#5ED7BC" p-id="2773"></path><path d="M578.064516 346.83871m24.774194 0l0 0q24.774194 0 24.774193 24.774193l0 280.774194q0 24.774194-24.774193 24.774193l0 0q-24.774194 0-24.774194-24.774193l0-280.774194q0-24.774194 24.774194-24.774193Z" fill="#5ED7BC" p-id="2774"></path></svg>